<?xml version="1.0" standalone="no"?>
<!DOCTYPE svg PUBLIC "-//W3C//DTD SVG 20010904//EN"
 "http://www.w3.org/TR/2001/REC-SVG-20010904/DTD/svg10.dtd">
<svg version="1.0" xmlns="http://www.w3.org/2000/svg"
 width="139.000000pt" height="173.000000pt" viewBox="0 0 139.000000 173.000000"
 preserveAspectRatio="xMidYMid meet">

<g transform="translate(0.000000,173.000000) scale(0.100000,-0.100000)"
fill="#000000" stroke="none">
<path d="M554 1366 c-182 -59 -309 -203 -350 -396 -47 -225 73 -471 280 -569
81 -39 134 -50 237 -51 150 0 256 45 364 154 163 165 200 383 100 594 -59 125
-166 220 -302 268 -94 33 -228 33 -329 0z m253 -52 c3 -8 0 -21 -6 -27 -10 -9
-15 -8 -22 6 -13 22 -26 22 -39 -2 -12 -23 -3 -51 16 -51 8 0 11 6 8 15 -5 11
1 15 19 15 23 0 25 -3 18 -27 -6 -22 -14 -29 -39 -31 -57 -6 -95 63 -56 102
21 21 93 21 101 0z m-173 -10 c9 -23 -3 -37 -20 -23 -24 20 -40 -4 -26 -36 13
-28 30 -33 38 -10 8 21 24 19 24 -4 0 -26 -51 -47 -79 -32 -22 12 -35 47 -29
78 2 10 18 23 38 30 46 16 47 16 54 -3z m309 -33 c5 -5 3 -16 -7 -27 -63 -74
-62 -73 -95 -46 -18 15 -20 24 -15 69 l7 52 50 -19 c28 -11 55 -24 60 -29z
m-428 -18 c2 -10 4 -21 4 -25 1 -5 11 -18 23 -30 20 -20 20 -21 2 -35 -19 -14
-39 -13 -39 3 -1 17 -30 54 -42 54 -17 0 -16 -25 3 -61 14 -29 11 -69 -5 -69
-5 0 -25 7 -45 15 -19 8 -41 14 -47 13 -45 -11 13 69 96 131 43 32 45 32 50 4z
m495 -29 l24 -25 -27 -49 c-16 -29 -22 -47 -15 -46 27 4 58 27 58 42 0 30 33
8 59 -39 22 -41 24 -49 11 -57 -8 -6 -22 -9 -31 -6 -9 2 -21 -5 -28 -15 -14
-23 -30 -24 -38 -4 -3 9 2 22 13 30 11 7 15 17 10 22 -5 4 -11 2 -13 -4 -8
-22 -27 -14 -60 26 -23 28 -29 41 -21 49 7 7 8 15 4 19 -4 4 -11 1 -16 -6 -8
-14 -40 -9 -40 6 1 4 15 17 33 29 19 12 31 27 29 37 -4 25 21 21 48 -9z m-169
-86 c63 -26 141 -111 163 -174 9 -26 17 -77 17 -113 2 -56 3 -60 8 -26 l6 40
99 3 99 3 -7 -53 c-46 -363 -424 -566 -748 -402 -142 72 -259 245 -270 399
l-3 50 101 0 102 0 5 47 c7 59 27 98 80 155 91 99 222 126 348 71z m-432 -74
c14 9 23 -11 16 -34 -6 -19 -35 -29 -35 -12 0 12 -49 34 -60 27 -18 -11 -20
15 -5 45 l16 31 29 -31 c16 -17 34 -29 39 -26z m-85 -40 c21 -8 21 -24 0 -24
-28 0 -11 -35 19 -38 23 -3 28 0 25 16 -3 18 1 22 22 22 18 0 11 -49 -10 -70
-25 -25 -51 -25 -80 -2 -19 16 -21 24 -15 60 7 43 11 47 39 36z m836 -36 c16
-58 2 -88 -43 -88 -39 0 -62 21 -72 68 -6 31 -5 32 24 32 17 0 36 7 43 15 22
25 37 17 48 -27z"/>
<path d="M883 1272 c-16 -10 -28 -62 -14 -62 13 0 33 37 29 55 -2 8 -8 11 -15
7z"/>
<path d="M400 1170 c0 -9 31 -30 45 -30 3 0 1 9 -5 20 -11 20 -40 28 -40 10z"/>
<path d="M1070 1090 c0 -5 5 -10 10 -10 6 0 10 5 10 10 0 6 -4 10 -10 10 -5 0
-10 -4 -10 -10z"/>
<path d="M731 1140 c108 -13 186 -63 238 -150 24 -39 29 -34 7 8 -42 80 -147
143 -246 148 l-65 3 66 -9z"/>
<path d="M638 1133 c7 -3 16 -2 19 1 4 3 -2 6 -13 5 -11 0 -14 -3 -6 -6z"/>
<path d="M554 1098 c-85 -57 -135 -153 -133 -253 2 -46 2 -44 9 21 12 110 58
185 143 234 29 16 47 30 41 30 -7 0 -34 -15 -60 -32z"/>
<path d="M661 1119 c-166 -33 -262 -217 -196 -375 19 -45 82 -112 129 -136
164 -84 374 31 393 215 19 181 -147 332 -326 296z m26 -150 c22 -19 15 -31 -9
-15 -73 52 -168 -37 -138 -129 13 -39 52 -75 82 -75 10 0 32 7 48 15 17 9 30
11 30 6 0 -18 -31 -34 -71 -35 -35 -1 -46 5 -75 36 -28 31 -34 45 -34 83 0 25
7 59 14 74 28 52 111 74 153 40z m163 6 c17 -9 30 -20 30 -25 0 -14 -12 -12
-34 5 -56 43 -136 -14 -136 -96 0 -69 61 -123 118 -103 22 8 28 17 30 47 3 35
2 37 -27 37 -17 0 -31 5 -31 10 0 6 18 10 40 10 l40 0 0 -51 c0 -48 -1 -51
-37 -65 -31 -13 -41 -14 -72 -2 -97 37 -108 174 -18 228 39 24 59 25 97 5z"/>
<path d="M1001 855 c-1 -82 -30 -152 -82 -204 -19 -19 -34 -38 -34 -42 0 -4
-4 -11 -9 -16 -5 -5 -6 -3 -2 5 9 16 4 15 -30 -3 -16 -8 -47 -18 -69 -22 -36
-6 -38 -7 -15 -14 15 -4 -3 -6 -45 -6 -51 0 -62 2 -40 7 l30 8 -30 1 c-82 3
-196 95 -229 184 -16 42 -16 42 -11 7 l5 -35 -15 30 c-8 17 -15 46 -16 65 -2
32 -2 32 -6 7 -12 -76 75 -206 170 -254 55 -27 142 -40 203 -29 29 6 34 10 23
18 -10 7 -8 8 10 4 50 -11 148 67 188 149 17 34 19 52 13 125 l-7 85 -2 -70z
m-14 -142 c-14 -26 -40 -61 -58 -78 -33 -30 -33 -30 4 14 20 24 44 63 54 87
10 24 19 40 21 35 2 -5 -8 -31 -21 -58z m-476 -72 c18 -19 56 -45 84 -57 27
-13 44 -24 37 -24 -43 0 -150 79 -178 132 -20 39 -17 48 4 13 11 -17 34 -46
53 -64z"/>
<path d="M1098 963 c-10 -2 -18 -9 -18 -14 0 -15 53 -6 58 9 4 12 -8 14 -40 5z"/>
</g>
</svg>
